<mxfile host="app.diagrams.net" modified="2024-01-19T07:28:51.741Z" agent="Mozilla/5.0 (Macintosh; Intel Mac OS X 10_15_7) AppleWebKit/537.36 (KHTML, like Gecko) Chrome/117.0.0.0 Safari/537.36" etag="wE_hd8AlwBQoTj-A_xFg" version="22.1.18" type="github">
  <diagram name="Page-1" id="5f0bae14-7c28-e335-631c-24af17079c00">
    <mxGraphModel dx="2074" dy="790" grid="1" gridSize="10" guides="1" tooltips="1" connect="1" arrows="1" fold="1" page="1" pageScale="1" pageWidth="1100" pageHeight="850" background="none" math="0" shadow="0">
      <root>
        <mxCell id="0" />
        <mxCell id="1" parent="0" />
        <mxCell id="QJRC6tCnk0zSJYKLOk9--8" style="edgeStyle=orthogonalEdgeStyle;rounded=1;orthogonalLoop=1;jettySize=auto;html=1;exitX=0.5;exitY=1;exitDx=0;exitDy=0;entryX=0.5;entryY=0;entryDx=0;entryDy=0;endArrow=none;endFill=0;curved=0;" edge="1" parent="1" source="QJRC6tCnk0zSJYKLOk9--1" target="QJRC6tCnk0zSJYKLOk9--6">
          <mxGeometry relative="1" as="geometry" />
        </mxCell>
        <mxCell id="QJRC6tCnk0zSJYKLOk9--9" style="edgeStyle=orthogonalEdgeStyle;rounded=1;orthogonalLoop=1;jettySize=auto;html=1;exitX=0.5;exitY=1;exitDx=0;exitDy=0;entryX=0.5;entryY=0;entryDx=0;entryDy=0;endArrow=none;endFill=0;curved=0;" edge="1" parent="1" source="QJRC6tCnk0zSJYKLOk9--1" target="QJRC6tCnk0zSJYKLOk9--3">
          <mxGeometry relative="1" as="geometry" />
        </mxCell>
        <mxCell id="QJRC6tCnk0zSJYKLOk9--1" value="App" style="rounded=1;whiteSpace=wrap;html=1;" vertex="1" parent="1">
          <mxGeometry x="490" y="60" width="120" height="60" as="geometry" />
        </mxCell>
        <mxCell id="QJRC6tCnk0zSJYKLOk9--2" value="CategotyItem" style="rounded=1;whiteSpace=wrap;html=1;" vertex="1" parent="1">
          <mxGeometry x="420" y="380" width="120" height="60" as="geometry" />
        </mxCell>
        <mxCell id="QJRC6tCnk0zSJYKLOk9--10" style="edgeStyle=orthogonalEdgeStyle;rounded=1;orthogonalLoop=1;jettySize=auto;html=1;exitX=0.5;exitY=1;exitDx=0;exitDy=0;entryX=0.5;entryY=0;entryDx=0;entryDy=0;endArrow=none;endFill=0;curved=0;" edge="1" parent="1" source="QJRC6tCnk0zSJYKLOk9--3" target="QJRC6tCnk0zSJYKLOk9--2">
          <mxGeometry relative="1" as="geometry" />
        </mxCell>
        <mxCell id="QJRC6tCnk0zSJYKLOk9--11" style="edgeStyle=orthogonalEdgeStyle;rounded=1;orthogonalLoop=1;jettySize=auto;html=1;exitX=0.5;exitY=1;exitDx=0;exitDy=0;entryX=0.5;entryY=0;entryDx=0;entryDy=0;endArrow=none;endFill=0;curved=0;" edge="1" parent="1" source="QJRC6tCnk0zSJYKLOk9--3" target="QJRC6tCnk0zSJYKLOk9--4">
          <mxGeometry relative="1" as="geometry" />
        </mxCell>
        <mxCell id="QJRC6tCnk0zSJYKLOk9--3" value="TodoView" style="rounded=1;whiteSpace=wrap;html=1;fontStyle=1" vertex="1" parent="1">
          <mxGeometry x="540" y="200" width="120" height="60" as="geometry" />
        </mxCell>
        <mxCell id="QJRC6tCnk0zSJYKLOk9--22" style="edgeStyle=orthogonalEdgeStyle;rounded=1;orthogonalLoop=1;jettySize=auto;html=1;exitX=0.5;exitY=1;exitDx=0;exitDy=0;curved=0;endArrow=none;endFill=0;" edge="1" parent="1" source="QJRC6tCnk0zSJYKLOk9--4" target="QJRC6tCnk0zSJYKLOk9--19">
          <mxGeometry relative="1" as="geometry" />
        </mxCell>
        <mxCell id="QJRC6tCnk0zSJYKLOk9--24" style="edgeStyle=orthogonalEdgeStyle;rounded=1;orthogonalLoop=1;jettySize=auto;html=1;exitX=0.5;exitY=1;exitDx=0;exitDy=0;entryX=0.5;entryY=0;entryDx=0;entryDy=0;curved=0;endArrow=none;endFill=0;" edge="1" parent="1" source="QJRC6tCnk0zSJYKLOk9--4" target="QJRC6tCnk0zSJYKLOk9--21">
          <mxGeometry relative="1" as="geometry" />
        </mxCell>
        <mxCell id="QJRC6tCnk0zSJYKLOk9--30" style="edgeStyle=orthogonalEdgeStyle;rounded=1;orthogonalLoop=1;jettySize=auto;html=1;exitX=0.5;exitY=1;exitDx=0;exitDy=0;entryX=0.5;entryY=0;entryDx=0;entryDy=0;curved=0;endArrow=none;endFill=0;" edge="1" parent="1" source="QJRC6tCnk0zSJYKLOk9--4" target="QJRC6tCnk0zSJYKLOk9--20">
          <mxGeometry relative="1" as="geometry" />
        </mxCell>
        <mxCell id="QJRC6tCnk0zSJYKLOk9--4" value="TodoItem" style="rounded=1;whiteSpace=wrap;html=1;" vertex="1" parent="1">
          <mxGeometry x="760" y="380" width="120" height="60" as="geometry" />
        </mxCell>
        <mxCell id="QJRC6tCnk0zSJYKLOk9--6" value="TodoHeader" style="rounded=1;whiteSpace=wrap;html=1;" vertex="1" parent="1">
          <mxGeometry x="210" y="200" width="120" height="60" as="geometry" />
        </mxCell>
        <mxCell id="QJRC6tCnk0zSJYKLOk9--17" style="edgeStyle=orthogonalEdgeStyle;rounded=1;orthogonalLoop=1;jettySize=auto;html=1;exitX=0;exitY=0.5;exitDx=0;exitDy=0;entryX=1;entryY=0.5;entryDx=0;entryDy=0;dashed=1;curved=0;strokeColor=#00ff59;" edge="1" parent="1" source="QJRC6tCnk0zSJYKLOk9--12" target="QJRC6tCnk0zSJYKLOk9--2">
          <mxGeometry relative="1" as="geometry">
            <Array as="points">
              <mxPoint x="700" y="205" />
              <mxPoint x="700" y="410" />
            </Array>
          </mxGeometry>
        </mxCell>
        <mxCell id="QJRC6tCnk0zSJYKLOk9--27" style="edgeStyle=orthogonalEdgeStyle;rounded=1;orthogonalLoop=1;jettySize=auto;html=1;exitX=0;exitY=0.5;exitDx=0;exitDy=0;entryX=1;entryY=0.5;entryDx=0;entryDy=0;curved=0;dashed=1;strokeColor=#00ff59;" edge="1" parent="1" source="QJRC6tCnk0zSJYKLOk9--12" target="QJRC6tCnk0zSJYKLOk9--19">
          <mxGeometry relative="1" as="geometry">
            <Array as="points">
              <mxPoint x="700" y="205" />
              <mxPoint x="700" y="620" />
            </Array>
          </mxGeometry>
        </mxCell>
        <mxCell id="QJRC6tCnk0zSJYKLOk9--28" style="edgeStyle=orthogonalEdgeStyle;rounded=1;orthogonalLoop=1;jettySize=auto;html=1;exitX=0;exitY=0.5;exitDx=0;exitDy=0;entryX=0;entryY=0.5;entryDx=0;entryDy=0;curved=0;dashed=1;strokeColor=#00ff59;" edge="1" parent="1" source="QJRC6tCnk0zSJYKLOk9--12" target="QJRC6tCnk0zSJYKLOk9--20">
          <mxGeometry relative="1" as="geometry">
            <Array as="points">
              <mxPoint x="700" y="205" />
              <mxPoint x="700" y="620" />
            </Array>
          </mxGeometry>
        </mxCell>
        <mxCell id="QJRC6tCnk0zSJYKLOk9--29" style="edgeStyle=orthogonalEdgeStyle;rounded=1;orthogonalLoop=1;jettySize=auto;html=1;exitX=0;exitY=0.5;exitDx=0;exitDy=0;entryX=0;entryY=0.5;entryDx=0;entryDy=0;curved=0;dashed=1;strokeColor=#00ff59;" edge="1" parent="1" source="QJRC6tCnk0zSJYKLOk9--12" target="QJRC6tCnk0zSJYKLOk9--21">
          <mxGeometry relative="1" as="geometry">
            <Array as="points">
              <mxPoint x="700" y="205" />
              <mxPoint x="700" y="270" />
              <mxPoint x="930" y="270" />
              <mxPoint x="930" y="620" />
            </Array>
          </mxGeometry>
        </mxCell>
        <mxCell id="QJRC6tCnk0zSJYKLOk9--12" value="Store.js" style="rounded=1;whiteSpace=wrap;html=1;fontStyle=1" vertex="1" parent="1">
          <mxGeometry x="810" y="175" width="80" height="60" as="geometry" />
        </mxCell>
        <mxCell id="QJRC6tCnk0zSJYKLOk9--13" value="Localstorage" style="shape=cylinder3;whiteSpace=wrap;html=1;boundedLbl=1;backgroundOutline=1;size=15;" vertex="1" parent="1">
          <mxGeometry x="970" y="150" width="90" height="110" as="geometry" />
        </mxCell>
        <mxCell id="QJRC6tCnk0zSJYKLOk9--16" style="edgeStyle=orthogonalEdgeStyle;rounded=0;orthogonalLoop=1;jettySize=auto;html=1;exitX=1;exitY=0.5;exitDx=0;exitDy=0;entryX=0;entryY=0.5;entryDx=0;entryDy=0;entryPerimeter=0;" edge="1" parent="1" source="QJRC6tCnk0zSJYKLOk9--12" target="QJRC6tCnk0zSJYKLOk9--13">
          <mxGeometry relative="1" as="geometry" />
        </mxCell>
        <mxCell id="QJRC6tCnk0zSJYKLOk9--19" value="TodoContent" style="rounded=1;whiteSpace=wrap;html=1;" vertex="1" parent="1">
          <mxGeometry x="510" y="590" width="120" height="60" as="geometry" />
        </mxCell>
        <mxCell id="QJRC6tCnk0zSJYKLOk9--20" value="TodoSide" style="rounded=1;whiteSpace=wrap;html=1;" vertex="1" parent="1">
          <mxGeometry x="760" y="590" width="120" height="60" as="geometry" />
        </mxCell>
        <mxCell id="QJRC6tCnk0zSJYKLOk9--21" value="TodoFooter" style="rounded=1;whiteSpace=wrap;html=1;" vertex="1" parent="1">
          <mxGeometry x="1020" y="590" width="120" height="60" as="geometry" />
        </mxCell>
      </root>
    </mxGraphModel>
  </diagram>
</mxfile>
